<svg width="156" height="45" viewBox="0 0 156 45" fill="none" xmlns="http://www.w3.org/2000/svg">
<path d="M53.8102 24.7396C52.4833 24.0038 51.7849 23.4082 51.7849 22.5672C51.7849 21.481 52.7277 20.8153 54.2292 20.8153C55.9752 20.8153 57.5116 21.5511 57.5116 21.5511L58.7338 17.802C58.7338 17.802 57.6164 16.926 54.299 16.926C49.6897 16.926 46.4772 19.589 46.4772 23.303C46.4772 25.4054 47.9787 27.0171 49.9691 28.1734C51.5754 29.0844 52.1341 29.7501 52.1341 30.6962C52.1341 31.7123 51.3309 32.5182 49.8294 32.5182C47.5946 32.5182 45.4995 31.3619 45.4995 31.3619L44.2075 35.111C44.2075 35.111 46.1629 36.4075 49.4104 36.4075C54.1594 36.4075 57.5465 34.0599 57.5465 29.8553C57.6164 27.5427 55.8704 25.9309 53.8102 24.7396Z" fill="black" fill-opacity="0.75"/>
<path d="M72.7363 16.8558C70.3967 16.8558 68.5809 17.9771 67.1493 19.6589L67.0794 19.6239L69.1047 8.97217H63.797L58.6639 36.057H63.9367L65.6827 26.8068C66.381 23.3029 68.1619 21.1656 69.838 21.1656C71.0253 21.1656 71.4792 21.9715 71.4792 23.1277C71.4792 23.8636 71.4094 24.7395 71.2348 25.4753L69.2444 36.092H74.5172L76.5774 25.16C76.8218 24.0037 76.9615 22.6372 76.9615 21.6912C77.0313 18.6428 75.4949 16.8558 72.7363 16.8558Z" fill="black" fill-opacity="0.75"/>
<path d="M88.9736 16.856C82.6184 16.856 78.3932 22.6023 78.3932 29.0143C78.3932 33.1138 80.9074 36.4425 85.6563 36.4425C91.9068 36.4425 96.0971 30.8363 96.0971 24.2841C96.132 20.4649 93.9321 16.856 88.9736 16.856ZM86.3896 32.343C84.5738 32.343 83.8405 30.8013 83.8405 28.8742C83.8405 25.8258 85.4119 20.8854 88.2753 20.8854C90.1609 20.8854 90.7545 22.4972 90.7545 24.0739C90.7545 27.3675 89.1832 32.343 86.3896 32.343Z" fill="black" fill-opacity="0.75"/>
<path d="M109.646 16.856C106.084 16.856 104.059 20.0094 104.059 20.0094H103.989L104.303 17.1713H99.6239C99.3795 19.0984 98.9605 22.0066 98.5414 24.2141L94.8749 43.5553H100.148L101.614 35.7067H101.719C101.719 35.7067 102.802 36.4075 104.827 36.4075C111.042 36.4075 115.093 30.0305 115.093 23.5834C115.093 20.0445 113.522 16.856 109.646 16.856ZM104.617 32.4481C103.255 32.4481 102.452 31.6773 102.452 31.6773L103.325 26.7368C103.954 23.4432 105.665 21.2358 107.481 21.2358C109.087 21.2358 109.576 22.7424 109.576 24.144C109.576 27.5427 107.551 32.4481 104.617 32.4481Z" fill="black" fill-opacity="0.75"/>
<path d="M122.635 9.25244C120.959 9.25244 119.598 10.5839 119.598 12.3358C119.598 13.9126 120.575 14.9988 122.077 14.9988H122.147C123.788 14.9988 125.219 13.8775 125.254 11.9154C125.289 10.3386 124.242 9.25244 122.635 9.25244Z" fill="black" fill-opacity="0.75"/>
<path d="M115.233 36.057H120.54L124.137 17.2764H118.794L115.233 36.057Z" fill="black" fill-opacity="0.75"/>
<path d="M137.546 17.2413H133.879L134.054 16.3653C134.368 14.5433 135.416 12.9316 137.197 12.9316C138.14 12.9316 138.873 13.2119 138.873 13.2119L139.92 9.07733C139.92 9.07733 139.013 8.62183 137.057 8.62183C135.171 8.62183 133.321 9.1474 131.889 10.3738C130.073 11.9155 129.235 14.1229 128.816 16.3653L128.676 17.2413H126.232L125.464 21.2357H127.908L125.115 36.057H130.388L133.181 21.2357H136.813L137.546 17.2413Z" fill="black" fill-opacity="0.75"/>
<path d="M150.256 17.2764C150.256 17.2764 146.939 25.6155 145.473 30.1706H145.403C145.298 28.6989 144.111 17.2764 144.111 17.2764H138.559L141.736 34.5153C141.806 34.9008 141.771 35.146 141.631 35.3913C141.003 36.5826 139.99 37.7389 138.768 38.5798C137.79 39.3156 136.673 39.7711 135.8 40.0865L137.267 44.5714C138.349 44.3261 140.549 43.4502 142.435 41.6982C144.844 39.4207 147.079 35.9519 149.349 31.1867L155.809 17.2764H150.256Z" fill="black" fill-opacity="0.75"/>
<path d="M26.0147 5.08298C26.0147 5.08298 25.5258 5.22313 24.7227 5.4684C24.583 5.0129 24.3735 4.48732 24.0941 3.9267C23.1862 2.17478 21.8244 1.22874 20.2181 1.22874C20.1133 1.22874 20.0086 1.22874 19.8689 1.26377C19.834 1.1937 19.7642 1.15866 19.7292 1.08858C19.0309 0.317733 18.123 -0.0326528 17.0405 0.00238571C14.9453 0.0724628 12.8502 1.57912 11.1741 4.27709C9.98683 6.16917 9.07894 8.55179 8.83451 10.4088C6.4251 11.1446 4.74898 11.6702 4.71406 11.7053C3.4919 12.0907 3.45698 12.1257 3.3173 13.282C3.21255 14.158 0 38.8251 0 38.8251L26.3988 43.4152V5.04794C26.1892 5.04794 26.0845 5.08298 26.0147 5.08298ZM19.9038 6.97506C18.5071 7.39552 16.9706 7.88606 15.4691 8.34156C15.8881 6.69475 16.7262 5.04794 17.7039 3.96174C18.088 3.57632 18.6118 3.12082 19.2054 2.84051C19.7991 4.1019 19.9387 5.81879 19.9038 6.97506ZM17.0405 1.43897C17.5293 1.43897 17.9484 1.54408 18.2976 1.75431C17.7389 2.03462 17.1801 2.49012 16.6564 3.0157C15.3294 4.45228 14.3168 6.69475 13.8978 8.8321C12.6407 9.21753 11.3836 9.60295 10.2313 9.95334C10.9995 6.58963 13.8279 1.50904 17.0405 1.43897ZM12.9899 20.7102C13.1295 22.9526 19.0309 23.4432 19.38 28.734C19.6245 32.9036 17.1801 35.7417 13.6533 35.9519C9.39321 36.2323 7.05364 33.7095 7.05364 33.7095L7.96153 29.8552C7.96153 29.8552 10.3011 31.6422 12.1867 31.502C13.4089 31.432 13.8628 30.4159 13.8279 29.7151C13.6533 26.7718 8.83451 26.947 8.52024 22.1117C8.24088 18.0472 10.8947 13.9477 16.7611 13.5623C19.0309 13.4222 20.1832 13.9828 20.1832 13.9828L18.8563 19.0283C18.8563 19.0283 17.3547 18.3276 15.5739 18.4677C12.9899 18.6429 12.9549 20.2897 12.9899 20.7102ZM21.3006 6.5546C21.3006 5.50344 21.1609 3.99678 20.672 2.73539C22.2783 3.05074 23.0465 4.83771 23.3957 5.9239C22.7672 6.09909 22.0688 6.30933 21.3006 6.5546Z" fill="black" fill-opacity="0.75"/>
<path d="M27.2019 43.3452L38.1665 40.6122C38.1665 40.6122 33.4524 8.62198 33.4175 8.41174C33.3826 8.20151 33.208 8.06136 33.0334 8.06136C32.8588 8.06136 29.7859 7.99128 29.7859 7.99128C29.7859 7.99128 27.9003 6.16928 27.2019 5.46851V43.3452Z" fill="black" fill-opacity="0.75"/>
</svg>
