<svg width="172" height="31" viewBox="0 0 172 31" fill="none" xmlns="http://www.w3.org/2000/svg">
<g clip-path="url(#clip0_333_90)">
<path d="M161.239 29.1408C159.082 29.1408 157.21 28.7404 155.62 27.9395C154.03 27.1242 152.791 25.9027 151.901 24.2749C151.024 22.6472 150.586 20.631 150.587 18.2264C150.587 15.9408 151.045 13.9707 151.961 12.3161C152.878 10.648 154.144 9.38039 155.761 8.51323C157.378 7.64702 159.217 7.21392 161.279 7.21392C163.259 7.21392 165.018 7.63406 166.555 8.47434C168.091 9.31557 169.283 10.5371 170.131 12.1389C170.994 13.7407 171.425 15.6585 171.425 17.8922C171.425 18.6931 171.419 19.3298 171.405 19.8022H155.297V15.6652H167.503L165.2 16.4344C165.2 15.3569 165.038 14.4571 164.715 13.735C164.404 12.9994 163.946 12.4476 163.34 12.0798C162.735 11.712 162 11.5281 161.137 11.5281C160.235 11.5281 159.44 11.7447 158.752 12.1778C158.079 12.5984 157.554 13.2289 157.177 14.0691C156.812 14.9104 156.63 15.9221 156.63 17.1042V19.1324C156.63 20.3405 156.818 21.3652 157.196 22.2064C157.573 23.0476 158.112 23.6843 158.813 24.1165C159.514 24.5371 160.343 24.7474 161.3 24.7474C162.351 24.7474 163.22 24.4847 163.906 23.9595C164.594 23.4217 165.025 22.6664 165.2 21.6936H171.324C171.135 23.2166 170.603 24.5371 169.727 25.6549C168.864 26.7698 167.712 27.6293 166.271 28.2333C164.829 28.8383 163.151 29.1408 161.239 29.1408ZM142.632 0.318359H148.756V28.569H142.632V0.318359ZM132.211 29.1408C131.052 29.1408 130.015 28.944 129.099 28.5503C128.192 28.152 127.401 27.5425 126.793 26.7756C126.161 25.9747 125.689 24.9899 125.379 23.8212L126.026 23.9983V28.569H119.963V7.78435H126.087V12.4342L125.4 12.5523C125.71 11.4364 126.181 10.4843 126.814 9.69586C127.461 8.89495 128.249 8.28419 129.178 7.86357C130.108 7.43143 131.153 7.21488 132.311 7.21392C134.05 7.21392 135.559 7.65374 136.839 8.53339C138.12 9.41208 139.104 10.6797 139.79 12.3363C140.477 13.9784 140.82 15.9288 140.82 18.1875C140.82 20.4336 140.47 22.3836 139.77 24.0372C139.07 25.6794 138.066 26.9403 136.758 27.8199C135.465 28.7005 133.95 29.1408 132.211 29.1408ZM130.31 24.5889C131.227 24.5889 131.995 24.3263 132.616 23.801C133.248 23.2757 133.72 22.5339 134.03 21.5755C134.353 20.6161 134.515 19.4868 134.515 18.1875C134.515 16.8872 134.353 15.7574 134.03 14.798C133.72 13.8406 133.248 13.0987 132.616 12.5725C131.995 12.0338 131.227 11.7644 130.31 11.7644C129.408 11.7644 128.634 12.0333 127.987 12.5711C127.353 13.0963 126.874 13.8454 126.551 14.8182C126.228 15.7766 126.066 16.8997 126.066 18.1875C126.066 19.4868 126.228 20.6161 126.551 21.5755C126.876 22.5339 127.355 23.2757 127.987 23.801C128.634 24.3263 129.408 24.5889 130.31 24.5889ZM119.963 0.318359H126.087V7.78435H119.963V0.318359ZM104.591 29.1408C103.257 29.1408 102.057 28.8844 100.992 28.3716C99.9696 27.8848 99.1081 27.127 98.5067 26.185C97.9136 25.2276 97.6171 24.1112 97.6171 22.8359C97.6171 20.8922 98.2033 19.4085 99.3757 18.3848C100.548 17.3477 102.239 16.6706 104.449 16.3537L108.148 15.8424C108.889 15.7367 109.475 15.6057 109.906 15.4491C110.337 15.2907 110.653 15.0804 110.855 14.8182C111.058 14.5426 111.16 14.1945 111.16 13.7738C111.16 13.3417 111.038 12.948 110.795 12.5927C110.565 12.2249 110.215 11.9358 109.745 11.7255C109.286 11.5017 108.727 11.3899 108.067 11.3899C107.016 11.3899 106.174 11.6592 105.54 12.198C104.907 12.7233 104.564 13.4459 104.51 14.3659H98.1846C98.2378 12.9734 98.6688 11.7385 99.4777 10.661C100.299 9.57198 101.438 8.72498 102.893 8.11998C104.348 7.51498 106.033 7.21296 107.947 7.21392C109.954 7.21392 111.651 7.53562 113.038 8.17904C114.427 8.80997 115.471 9.71603 116.171 10.8972C116.885 12.0794 117.242 13.491 117.242 15.1322V23.801C117.242 24.7344 117.31 25.6016 117.445 26.4025C117.592 27.19 117.801 27.6893 118.071 27.9006V28.569H111.705C111.546 27.9405 111.431 27.3024 111.361 26.6589C111.278 25.9124 111.232 25.1625 111.22 24.4118L112.21 23.9983C111.942 24.9509 111.458 25.8329 110.795 26.5797C110.122 27.3547 109.253 27.9789 108.188 28.4523C107.137 28.9104 105.938 29.1399 104.591 29.1408ZM106.853 24.7676C107.716 24.7676 108.478 24.5837 109.138 24.2159C109.798 23.8337 110.303 23.3084 110.654 22.64C111.018 21.9706 111.2 21.2086 111.2 20.3539V17.6358L111.705 17.9109C111.388 18.324 110.972 18.6553 110.493 18.876C110.02 19.0998 109.38 19.2904 108.572 19.4479L107.016 19.7432C105.979 19.94 105.198 20.2425 104.671 20.6507C104.158 21.0569 103.902 21.6283 103.902 22.3648C103.902 23.1014 104.179 23.6853 104.733 24.1165C105.284 24.5505 105.99 24.7676 106.853 24.7676ZM76.7891 7.78435H83.2973L88.8952 25.6146H86.9341L92.3104 7.78435H98.6368L91.2596 28.5704H84.4485L76.7891 7.78435ZM67.2174 29.1408C65.1012 29.1408 63.2417 28.6943 61.6388 27.8012C60.0487 26.9081 58.8157 25.6342 57.9398 23.9796C57.0778 22.324 56.6468 20.3866 56.6468 18.1673C56.6468 15.948 57.0778 14.0178 57.9398 12.3766C58.8167 10.72 60.0496 9.4457 61.6388 8.55356C63.2417 7.66047 65.1012 7.21392 67.2174 7.21392C69.3336 7.21392 71.1858 7.66047 72.7739 8.55356C74.365 9.44666 75.5916 10.7205 76.4536 12.3751C77.3295 14.0173 77.7674 15.948 77.7674 18.1673C77.7674 20.3866 77.329 22.324 76.4522 23.9796C75.5901 25.6342 74.3645 26.9081 72.7754 27.8012C71.1853 28.6943 69.3326 29.1408 67.2174 29.1408ZM67.2174 24.5702C68.1061 24.5702 68.8671 24.334 69.5006 23.8615C70.1331 23.3746 70.6183 22.6587 70.9562 21.7138C71.2932 20.7544 71.4616 19.5722 71.4616 18.1673C71.4616 16.0796 71.0907 14.497 70.3489 13.4195C69.608 12.3295 68.5637 11.7845 67.216 11.7845C66.3283 11.7845 65.5603 12.0275 64.9121 12.5134C64.2796 12.9859 63.7949 13.7013 63.4579 14.6597C63.121 15.6066 62.9525 16.7758 62.9525 18.1673C62.9525 19.5588 63.121 20.7342 63.4579 21.6936C63.7949 22.6529 64.2796 23.3756 64.9121 23.8615C65.5593 24.334 66.3278 24.5702 67.2174 24.5702ZM38.7477 0.318359H45.0934V24.1669L43.9614 22.8863H52.5119C57.9192 22.8863 57.1788 28.569 57.1788 28.569H38.7477V0.318359Z" fill="#18181B" fill-opacity="0.8"/>
<mask id="mask0_333_90" style="mask-type:alpha" maskUnits="userSpaceOnUse" x="0" y="0" width="30" height="29">
<path fill-rule="evenodd" clip-rule="evenodd" d="M8.72489 0C13.5425 0 17.4498 3.81726 17.4498 8.52762V11.7687H20.3536C25.1712 11.7687 29.0785 15.586 29.0785 20.2963C29.0785 25.0038 25.1727 28.8225 20.3536 28.8225H0V8.52618C0 3.81726 3.90581 0 8.72489 0Z" fill="url(#paint0_linear_333_90)"/>
</mask>
<g mask="url(#mask0_333_90)">
<g filter="url(#filter0_f_333_90)">
<path d="M12.7563 34.5728C23.6276 34.5728 32.4405 25.9824 32.4405 15.3856C32.4405 4.78886 23.6276 -3.80151 12.7563 -3.80151C1.88503 -3.80151 -6.92789 4.78886 -6.92789 15.3856C-6.92789 25.9824 1.88503 34.5728 12.7563 34.5728Z" fill="#ACACAC" fill-opacity="0.8"/>
</g>
<g filter="url(#filter1_f_333_90)">
<path d="M14.9183 24.043C28.8412 24.043 40.128 15.4526 40.128 4.85584C40.128 -5.74092 28.8412 -14.3313 14.9183 -14.3313C0.995402 -14.3313 -10.2914 -5.74092 -10.2914 4.85584C-10.2914 15.4526 0.995402 24.043 14.9183 24.043Z" fill="#AFAFAF" fill-opacity="0.8"/>
</g>
<g filter="url(#filter2_f_333_90)">
<path d="M19.0295 18.0952C29.9008 18.0952 38.7137 10.5509 38.7137 1.24449C38.7137 -8.06189 29.9008 -15.6062 19.0295 -15.6062C8.15826 -15.6062 -0.654663 -8.06189 -0.654663 1.24449C-0.654663 10.5509 8.15826 18.0952 19.0295 18.0952Z" fill="#454545" fill-opacity="0.8"/>
</g>
<g filter="url(#filter3_f_333_90)">
<path d="M15.2686 16.3896C21.8068 16.3896 27.1072 11.2231 27.1072 4.84996C27.1072 -1.52322 21.8068 -6.6897 15.2686 -6.6897C8.73028 -6.6897 3.42996 -1.52322 3.42996 4.84996C3.42996 11.2231 8.73028 16.3896 15.2686 16.3896Z" fill="black" fill-opacity="0.8"/>
</g>
</g>
</g>
<defs>
<filter id="filter0_f_333_90" x="-12.8979" y="-9.77151" width="51.3084" height="50.3143" filterUnits="userSpaceOnUse" color-interpolation-filters="sRGB">
<feFlood flood-opacity="0" result="BackgroundImageFix"/>
<feBlend mode="normal" in="SourceGraphic" in2="BackgroundImageFix" result="shape"/>
<feGaussianBlur stdDeviation="2.985" result="effect1_foregroundBlur_333_90"/>
</filter>
<filter id="filter1_f_333_90" x="-16.2614" y="-20.3013" width="62.3593" height="50.3143" filterUnits="userSpaceOnUse" color-interpolation-filters="sRGB">
<feFlood flood-opacity="0" result="BackgroundImageFix"/>
<feBlend mode="normal" in="SourceGraphic" in2="BackgroundImageFix" result="shape"/>
<feGaussianBlur stdDeviation="2.985" result="effect1_foregroundBlur_333_90"/>
</filter>
<filter id="filter2_f_333_90" x="-6.62466" y="-21.5762" width="51.3084" height="45.6414" filterUnits="userSpaceOnUse" color-interpolation-filters="sRGB">
<feFlood flood-opacity="0" result="BackgroundImageFix"/>
<feBlend mode="normal" in="SourceGraphic" in2="BackgroundImageFix" result="shape"/>
<feGaussianBlur stdDeviation="2.985" result="effect1_foregroundBlur_333_90"/>
</filter>
<filter id="filter3_f_333_90" x="-2.54004" y="-12.6597" width="35.6172" height="35.0193" filterUnits="userSpaceOnUse" color-interpolation-filters="sRGB">
<feFlood flood-opacity="0" result="BackgroundImageFix"/>
<feBlend mode="normal" in="SourceGraphic" in2="BackgroundImageFix" result="shape"/>
<feGaussianBlur stdDeviation="2.985" result="effect1_foregroundBlur_333_90"/>
</filter>
<linearGradient id="paint0_linear_333_90" x1="9.78595" y1="5.06471" x2="18.2529" y2="28.9501" gradientUnits="userSpaceOnUse">
<stop offset="0.025" stop-color="#FF8E63"/>
<stop offset="0.56" stop-color="#FF7EB0"/>
<stop offset="0.95" stop-color="#4B73FF"/>
</linearGradient>
<clipPath id="clip0_333_90">
<rect width="171.424" height="30.25" fill="white"/>
</clipPath>
</defs>
</svg>
