<svg width="183" height="40" viewBox="0 0 183 40" fill="none" xmlns="http://www.w3.org/2000/svg">
<g clip-path="url(#clip0_334_116)">
<path d="M58.0156 36.8516V12.022H61.7241L62.0698 14.0335H62.2584C63.3269 12.6506 65.1183 11.6763 67.6011 11.6763C72.1895 11.6763 75.8352 15.4164 75.8352 20.9166C75.8352 26.4169 72.1581 30.157 67.6011 30.157C65.1497 30.157 63.4212 29.1512 62.5098 27.9883H62.3212V36.8516H58.0156ZM71.5296 20.9166C71.5296 17.6794 69.4553 15.6364 66.9097 15.6364C64.364 15.6364 62.2898 17.6794 62.2898 20.9166C62.2898 24.1539 64.364 26.1968 66.9097 26.1968C69.4553 26.1968 71.5296 24.1539 71.5296 20.9166Z" fill="black" fill-opacity="0.8"/>
<path d="M78.0037 20.9166C78.0037 15.5421 81.8693 11.6763 87.0549 11.6763C92.2404 11.6763 96.106 15.5421 96.106 20.9166C96.106 26.2911 92.209 30.157 87.0549 30.157C81.9007 30.157 78.0037 26.2597 78.0037 20.9166ZM91.769 20.9166C91.769 17.7422 89.6634 15.6364 87.0549 15.6364C84.4464 15.6364 82.3093 17.7422 82.3093 20.9166C82.3093 24.091 84.4464 26.1654 87.0549 26.1654C89.6634 26.1654 91.769 24.091 91.769 20.9166Z" fill="black" fill-opacity="0.8"/>
<path d="M99.186 29.8112V5.20166H103.492V29.8426L99.186 29.8112Z" fill="black" fill-opacity="0.8"/>
<path d="M119.425 12.0219H123.982L116.251 33.6456C115.466 35.7829 114.428 36.8515 111.631 36.8515H107.483V32.8599H111.003C111.631 32.8599 111.977 32.5456 112.197 32.0113L112.606 30.8484L105.346 11.9905H109.903L114.523 24.3424H115.214L119.425 12.0219Z" fill="black" fill-opacity="0.8"/>
<path d="M124.831 30.6913H129.199C129.388 31.8542 130.519 33.4257 133.285 33.4257C135.862 33.4257 137.528 31.7914 137.528 29.3398V26.8569H137.339C136.396 27.8626 134.636 28.8055 132.374 28.8055C127.817 28.8055 124.265 25.2854 124.265 20.2252C124.265 15.165 127.785 11.6763 132.374 11.6763C134.731 11.6763 136.459 12.6192 137.559 13.9706H137.748L138.094 12.022H141.833V29.3713C141.833 34.0857 138.659 37.2287 133.285 37.2287C127.251 37.1973 124.925 33.2686 124.831 30.6913ZM137.528 20.2252C137.528 17.4594 135.548 15.5107 133.065 15.5107C130.582 15.5107 128.634 17.4594 128.634 20.2252C128.634 22.991 130.614 24.9711 133.065 24.9711C135.516 24.9711 137.528 23.0224 137.528 20.2252Z" fill="black" fill-opacity="0.8"/>
<path d="M144.788 20.9166C144.788 15.5421 148.653 11.6763 153.839 11.6763C159.024 11.6763 162.89 15.5421 162.89 20.9166C162.89 26.2911 159.024 30.157 153.839 30.157C148.653 30.157 144.788 26.2597 144.788 20.9166ZM158.553 20.9166C158.553 17.7422 156.447 15.6364 153.839 15.6364C151.23 15.6364 149.093 17.7422 149.093 20.9166C149.093 24.091 151.23 26.1654 153.839 26.1654C156.447 26.1654 158.553 24.091 158.553 20.9166Z" fill="black" fill-opacity="0.8"/>
<path d="M165.876 29.8113V12.022H169.584L169.93 13.7192H170.118C170.81 12.902 172.57 11.6763 175.241 11.6763C179.327 11.6763 182.281 14.6307 182.281 19.1251V29.8113H177.975V19.6909C177.975 17.3965 176.341 15.7621 174.141 15.7621C171.941 15.7621 170.15 17.4908 170.15 19.6909V29.8113H165.876Z" fill="black" fill-opacity="0.8"/>
<path d="M33.0306 27.7368L43.5903 21.6394C44.156 21.3251 44.5017 20.728 44.5017 20.0679V7.87317C44.5017 7.24457 44.156 6.61598 43.5903 6.30168L33.0306 0.235724C32.4649 -0.0785746 31.7735 -0.0785746 31.2078 0.235724L20.6795 6.33311C20.1138 6.64741 19.7681 7.24457 19.7681 7.9046V29.6855L12.3511 33.9285L4.96559 29.654V21.1366L12.3511 16.8621L17.2224 19.6908V13.9391L13.2311 11.6447C12.9482 11.4876 12.634 11.3933 12.3197 11.3933C12.0054 11.3933 11.6911 11.4876 11.4083 11.6447L0.911405 17.7421C0.345705 18.0564 0 18.6536 0 19.3136V31.5084C0 32.1684 0.345705 32.7656 0.911405 33.0799L11.4711 39.1773C12.0368 39.4916 12.7282 39.4916 13.2939 39.1773L23.8537 33.0799C24.4194 32.7656 24.7651 32.1684 24.7651 31.5084V9.6961L24.8908 9.63324L32.1506 5.42164L39.5675 9.6961V18.245L32.1506 22.5195L27.2793 19.7222V25.4424L31.2392 27.7368C31.7735 28.0511 32.4649 28.0511 33.0306 27.7368Z" fill="black" fill-opacity="0.8"/>
</g>
<defs>
<clipPath id="clip0_334_116">
<rect width="182.281" height="39.413" fill="white"/>
</clipPath>
</defs>
</svg>
