<svg width="176" height="44" viewBox="0 0 176 44" fill="none" xmlns="http://www.w3.org/2000/svg">
<g clip-path="url(#clip0_137_125)">
<path d="M10.3103 10.5731V33.4258C4.61567 33.4258 0 28.6922 0 22.8527V0C5.69379 0 10.3103 4.73369 10.3103 10.5731Z" fill="black" fill-opacity="0.8"/>
<path d="M31.236 44H10.3103C4.61567 44 0 39.2658 0 33.4261V22.853C0 28.6924 4.61567 33.4261 10.3103 33.4261H20.9258C23.7732 33.4261 26.3505 34.6097 28.2161 36.523C30.0817 38.4364 31.236 41.0801 31.236 44Z" fill="#151515" fill-opacity="0.8"/>
<path d="M173.327 16.3314C172.538 16.3314 171.948 16.1486 171.554 15.783C171.16 15.3983 170.963 14.8692 170.963 14.1958C170.963 13.5224 171.216 12.9645 171.722 12.522C172.248 12.0602 172.895 11.8293 173.664 11.8293C174.359 11.8293 174.921 12.0025 175.353 12.3488C175.785 12.6951 176 13.1857 176 13.8206C176 14.5903 175.756 15.2059 175.269 15.6676C174.781 16.1101 174.133 16.3314 173.327 16.3314ZM170.625 31.8288C170.026 31.8288 169.613 31.7038 169.387 31.4537C169.162 31.2036 169.049 30.8091 169.049 30.2705C169.049 30.1165 169.068 29.8471 169.106 29.4624C169.406 25.9415 169.903 22.7382 170.598 19.8523C170.747 19.2558 170.991 18.8421 171.329 18.6112C171.686 18.3612 172.248 18.2361 173.018 18.2361C173.824 18.2361 174.227 18.5727 174.227 19.2462C174.227 19.3424 174.208 19.5251 174.171 19.7945C173.327 23.9118 172.82 27.3653 172.651 30.155C172.614 30.7706 172.436 31.2036 172.117 31.4537C171.797 31.7038 171.3 31.8288 170.625 31.8288Z" fill="black" fill-opacity="0.8"/>
<path d="M159.687 31.8285C158.524 31.8285 157.595 31.3956 156.9 30.5298C156.206 29.6641 155.86 28.5289 155.86 27.1244C155.86 25.5853 156.206 24.1326 156.9 22.7667C157.595 21.3814 158.514 20.2751 159.658 19.4479C160.821 18.6012 162.05 18.178 163.345 18.178C163.757 18.178 164.03 18.2646 164.16 18.4377C164.31 18.5917 164.433 18.8803 164.527 19.3035C164.92 19.2265 165.333 19.1881 165.765 19.1881C166.684 19.1881 167.143 19.5247 167.143 20.1982C167.143 20.6021 167.003 21.5641 166.722 23.0841C166.29 25.2967 166.074 26.8358 166.074 27.7015C166.074 27.9902 166.139 28.2211 166.271 28.3942C166.421 28.5674 166.609 28.6539 166.834 28.6539C167.19 28.6539 167.622 28.423 168.129 27.9614C168.635 27.4803 169.319 26.7108 170.182 25.6526C170.407 25.3832 170.661 25.2485 170.942 25.2485C171.186 25.2485 171.374 25.364 171.505 25.5949C171.655 25.8258 171.731 26.1432 171.731 26.5473C171.731 27.3168 171.552 27.9132 171.196 28.3365C170.426 29.3177 169.61 30.145 168.747 30.8184C167.885 31.4918 167.05 31.8285 166.243 31.8285C165.624 31.8285 165.052 31.6168 164.527 31.1935C164.02 30.7511 163.635 30.1547 163.373 29.4043C162.397 31.0204 161.168 31.8285 159.687 31.8285ZM160.7 28.9137C161.113 28.9137 161.506 28.6635 161.881 28.1633C162.257 27.6632 162.529 26.9994 162.698 26.172L163.738 20.862C162.951 20.8812 162.218 21.189 161.544 21.7854C160.887 22.3626 160.362 23.1321 159.967 24.0941C159.574 25.0562 159.376 26.0759 159.376 27.1532C159.376 27.7497 159.489 28.1923 159.714 28.4808C159.959 28.7694 160.287 28.9137 160.7 28.9137Z" fill="black" fill-opacity="0.8"/>
<path d="M151.492 31.8861C150.91 31.8861 150.423 31.6841 150.029 31.2801C149.636 30.8761 149.438 30.3758 149.438 29.7794C149.438 29.1829 149.636 28.6828 150.029 28.2787C150.423 27.8746 150.91 27.6726 151.492 27.6726C152.056 27.6726 152.534 27.8746 152.927 28.2787C153.322 28.6828 153.518 29.1829 153.518 29.7794C153.518 30.3758 153.322 30.8761 152.927 31.2801C152.534 31.6841 152.056 31.8861 151.492 31.8861Z" fill="black" fill-opacity="0.8"/>
<path d="M142.416 27.6213H134.298L132.903 31.6842H129.582L136.528 11.77H140.211L147.159 31.6842H143.811L142.416 27.6213ZM141.523 24.9603L138.371 15.7186L135.189 24.9603H141.523Z" fill="black" fill-opacity="0.8"/>
<path d="M128.067 11.7986L120.786 31.6842H117.103L109.793 11.7986H113.197L118.944 28.3366L124.72 11.7986H128.067Z" fill="black" fill-opacity="0.8"/>
<path d="M98.3211 31.8847C96.517 31.8847 94.8523 31.4555 93.3271 30.5971C91.8206 29.7197 90.621 28.5085 89.7281 26.9633C88.854 25.3992 88.4169 23.6443 88.4169 21.6987C88.4169 19.7531 88.854 18.0076 89.7281 16.4626C90.621 14.9175 91.8206 13.7158 93.3271 12.8574C94.8523 11.98 96.517 11.5413 98.3211 11.5413C100.144 11.5413 101.808 11.98 103.315 12.8574C104.84 13.7158 106.04 14.9175 106.914 16.4626C107.788 18.0076 108.225 19.7531 108.225 21.6987C108.225 23.6443 107.788 25.3992 106.914 26.9633C106.04 28.5085 104.84 29.7197 103.315 30.5971C101.808 31.4555 100.144 31.8847 98.3211 31.8847ZM98.3211 29.0521C99.6045 29.0521 100.748 28.7564 101.753 28.1651C102.757 27.5546 103.538 26.6963 104.096 25.5899C104.673 24.4645 104.961 23.1675 104.961 21.6987C104.961 20.2299 104.673 18.9424 104.096 17.836C103.538 16.7297 102.757 15.8808 101.753 15.2895C100.748 14.6982 99.6045 14.4025 98.3211 14.4025C97.0377 14.4025 95.8938 14.6982 94.8895 15.2895C93.8852 15.8808 93.0946 16.7297 92.5181 17.836C91.9601 18.9424 91.6811 20.2299 91.6811 21.6987C91.6811 23.1675 91.9601 24.4645 92.5181 25.5899C93.0946 26.6963 93.8852 27.5546 94.8895 28.1651C95.8938 28.7564 97.0377 29.0521 98.3211 29.0521Z" fill="black" fill-opacity="0.8"/>
<path d="M85.2968 11.7986V31.6842H82.1163V18.0647L76.2017 31.6842H73.9977L68.0552 18.0647V31.6842H64.8747V11.7986H68.3063L75.1136 27.3923L81.8931 11.7986H85.2968Z" fill="black" fill-opacity="0.8"/>
<path d="M60.6992 11.7986V31.6842H57.5187V11.7986H60.6992Z" fill="black" fill-opacity="0.8"/>
<path d="M48.3024 29.0519H54.8586V31.6842H45.1219V11.7986H48.3024V29.0519Z" fill="black" fill-opacity="0.8"/>
</g>
<defs>
<clipPath id="clip0_137_125">
<rect width="176" height="44" fill="white"/>
</clipPath>
</defs>
</svg>
