<svg width="162" height="43" viewBox="0 0 162 43" fill="none" xmlns="http://www.w3.org/2000/svg">
<g clip-path="url(#clip0_338_171)">
<path d="M0.166901 33.9081C0.1669 33.0651 0.1669 32.2221 0.226637 31.3094C0.40767 31.3051 0.527849 31.3726 0.650433 31.4353C1.90774 32.0789 1.92305 32.0731 2.25991 31.0009C2.92715 31.1102 3.56697 31.1763 4.18607 31.328C4.73321 31.462 5.32489 31.9446 5.77651 31.8225C6.55903 31.6111 7.44956 31.209 7.92443 30.5964C8.47744 29.8831 8.26948 28.7702 9.09927 28.0055C9.72355 27.4301 10.0665 26.4917 10.3928 25.6587C10.7257 24.8091 11.3402 24.6507 12.1359 24.692C13.9692 29.4862 17.6102 31.7311 22.4402 32.2011C24.3461 32.3865 26.2831 32.2476 28.2057 32.3244C28.0702 32.9491 28.0746 33.6025 27.7726 34.0438C27.0008 35.1718 26.0966 36.2086 25.2334 37.272C25.1342 37.3943 24.9545 37.4476 24.8201 37.5442C23.7158 38.3377 23.7 39.6806 23.2112 40.7848C23.1921 40.8278 23.2027 40.9167 23.2343 40.9452C23.9526 41.5936 23.4204 42.4116 23.5334 43.1406C18.8566 43.1406 14.1798 43.1406 9.41224 43.0808C9.24021 42.9543 9.16911 42.8535 9.07626 42.8254C4.72283 41.5068 1.85196 38.6849 0.49983 34.3077C0.452542 34.1546 0.280694 34.0404 0.166901 33.9081Z" fill="#171717" fill-opacity="0.8"/>
<path d="M42.8942 25.1794C42.8942 26.8616 42.8942 28.5437 42.836 30.2964C42.279 29.9419 41.6119 29.6079 41.3233 29.0689C40.9549 28.381 40.4489 28.0591 39.7952 27.8002C39.4148 27.6495 39.0032 27.4847 38.7156 27.21C38.1039 26.6256 37.5189 25.9994 37.0118 25.3231C36.7158 24.9282 36.4657 24.8739 36.0427 25.0272C35.5839 25.1936 35.1651 25.1707 35.0367 24.5526C35.0117 24.4325 34.9023 24.2313 34.8367 24.2333C33.7111 24.2665 33.9333 23.1853 33.6175 22.6349C32.6951 21.0274 31.9612 19.3114 31.1047 17.6636C30.9778 17.4192 30.5876 17.3132 30.2728 17.111C28.8935 14.6864 27.0257 12.8465 24.4148 12.006C22.7298 11.4635 20.9377 11.2576 19.18 10.844C17.8816 10.3354 16.6182 9.80111 15.3055 9.45695C14.1463 9.15303 12.9218 9.1076 11.7497 8.84274C11.4585 8.77696 11.0888 8.32362 11.0534 8.01394C10.9897 7.45669 10.7578 7.15113 10.2899 6.92987C10.0162 6.80042 9.73881 6.65011 9.51315 6.45162C8.7377 5.76949 7.99025 5.07441 7.30671 4.27622C6.69428 3.56108 5.67629 3.19725 4.86472 2.62898C6.19593 1.90045 7.50118 1.22433 8.8017 0.539107C8.99478 0.437376 9.16552 0.29275 9.34659 0.167969C10.5184 0.167969 11.6902 0.167969 12.9496 0.22785C13.0581 0.339078 13.0642 0.414975 13.1022 0.438211C14.3211 1.18448 15.4814 1.96435 16.4064 3.11943C17.0621 3.93824 18.0013 4.52633 18.8075 5.22479C19.2314 5.59193 19.5831 6.13691 20.0709 6.31497C20.9229 6.62602 21.2377 7.25835 21.5367 7.99689C21.6389 8.24925 21.8533 8.49847 22.0816 8.64957C23.987 9.91062 26.11 10.7854 27.9429 12.2033C29.9097 13.7247 31.4768 15.5979 33.1438 17.4004C33.9978 18.3238 34.5844 19.5029 35.8607 20.065C36.7393 20.4519 37.472 21.1747 38.2689 21.7488C38.9083 22.2094 39.7595 22.5409 40.1378 23.1629C40.8123 24.2718 42.0027 24.482 42.8942 25.1794Z" fill="#272727" fill-opacity="0.8"/>
<path d="M42.8942 25.1007C42.0027 24.482 40.8123 24.2717 40.1378 23.1629C39.7595 22.5409 38.9083 22.2094 38.2689 21.7487C37.472 21.1746 36.7394 20.4519 35.8607 20.0649C34.5844 19.5029 33.9978 18.3237 33.1438 17.4003C31.4768 15.5978 29.9097 13.7247 27.9429 12.2032C26.11 10.7854 23.987 9.91059 22.0816 8.64954C21.8533 8.49845 21.6389 8.24922 21.5367 7.99687C21.2377 7.25833 20.9229 6.62599 20.0709 6.31494C19.5831 6.13688 19.2314 5.5919 18.8075 5.22476C18.0013 4.5263 17.0621 3.93821 16.4064 3.1194C15.4814 1.96432 14.3211 1.18446 13.1022 0.438184C13.0642 0.414948 13.0581 0.339052 13.0278 0.227823C15.4142 0.167942 17.81 0.167942 20.2917 0.227416C20.655 0.613089 20.8929 0.987089 21.2164 1.25736C22.768 2.55336 24.3388 3.82616 25.9106 5.09736C26.8328 5.84317 27.8284 6.509 28.6784 7.32886C29.207 7.83862 30.1426 7.85044 30.3275 8.82069C30.4017 9.20947 30.8815 9.79912 31.1979 9.81317C32.4834 9.87025 32.7497 11.2439 33.7902 11.6491C34.5036 11.9269 35.0246 12.7046 35.6316 13.2588C36.16 13.7413 36.6838 14.2288 37.2181 14.7046C37.6225 15.0648 38.1388 15.3437 38.4275 15.7782C38.8087 16.352 39.1317 16.8175 39.6893 16.5458C40.4198 17.2699 41.0289 17.9351 41.707 18.5195C42.0362 18.8032 42.4944 18.9355 42.8942 19.1364C42.8942 21.0983 42.8942 23.0602 42.8942 25.1007Z" fill="#2A2A2A" fill-opacity="0.8"/>
<path d="M12.1036 24.6442C11.3402 24.6508 10.7257 24.8092 10.3928 25.6588C10.0665 26.4918 9.72356 27.4302 9.09928 28.0056C8.2695 28.7703 8.47746 29.8831 7.92445 30.5965C7.44958 31.2091 6.55905 31.6112 5.77653 31.8226C5.32491 31.9447 4.73323 31.4621 4.18609 31.3281C3.56699 31.1764 2.92717 31.1103 2.25993 31.001C1.92306 32.0731 1.90776 32.079 0.650451 31.4354C0.527866 31.3727 0.407688 31.3052 0.226655 31.2311C0.166918 28.645 0.166918 26.0676 0.237342 23.4111C1.08431 23.2474 1.88692 22.8758 2.58972 23.5837C2.66246 23.657 2.89778 23.5493 3.05582 23.5583C3.41578 23.5788 3.81757 23.5265 4.12553 23.6703C4.94532 24.0531 5.4052 23.8361 5.89087 23.092C6.22618 22.5782 6.61449 22.0846 7.26267 21.7168C7.96645 21.3174 8.41493 20.34 8.79613 19.5297C9.0733 18.9405 8.90685 18.1292 9.21143 17.5666C9.70446 16.6559 10.4219 15.868 11.0966 15.0542C12.2271 15.9978 13.313 16.9069 14.3819 17.8358C15.1766 18.5265 16.0498 18.5885 17.0257 18.3163C18.5194 17.8995 20.0279 17.5364 21.5323 17.2125C21.5792 17.4038 21.5945 17.5562 21.6735 17.6589C22.3672 18.5605 22.1098 19.2742 21.0564 19.6224C20.7359 19.7283 20.4618 19.9845 20.1755 20.1849C19.7979 20.4493 19.4663 20.8318 19.0502 20.9801C17.1358 21.6625 16.9308 24.2085 18.2632 25.3424C18.453 25.5039 18.5519 25.7732 18.6284 25.9982C15.1123 25.2139 12.8224 23.214 12.0734 19.5891C11.4605 20.4896 11.4846 22.0669 12.1036 24.6442Z" fill="#1A1A1A" fill-opacity="0.8"/>
<path d="M4.83722 2.67822C5.67628 3.19705 6.69428 3.56087 7.30671 4.27601C7.99025 5.0742 8.73769 5.76929 9.51315 6.45141C9.73881 6.64991 10.0162 6.80021 10.2899 6.92966C10.7578 7.15092 10.9897 7.45648 11.0534 8.01373C11.0888 8.32341 11.4585 8.77675 11.7497 8.84253C12.9218 9.10739 14.1463 9.15282 15.3055 9.45674C16.6182 9.80091 17.8816 10.3352 19.1027 10.8561C16.1125 10.8168 13.2356 11.1328 10.4191 11.9526C9.41106 12.2461 9.22332 12.5867 9.4247 13.6084C7.96273 14.3794 6.53461 15.0986 5.16354 15.9147C4.09146 16.5529 3.21141 16.3812 2.32506 15.4962C1.73149 14.9034 0.894802 14.557 0.166901 14.1003C0.166901 12.5861 0.166901 11.0718 0.227155 9.46863C0.531573 8.77586 0.754928 8.16242 1.02372 7.56983C1.90252 5.63241 3.00605 3.86697 4.83722 2.67822Z" fill="#232323" fill-opacity="0.8"/>
<path d="M42.8942 19.0576C42.4944 18.9354 42.0362 18.8031 41.707 18.5193C41.0289 17.935 40.4198 17.2698 39.6893 16.5457C39.1317 16.8174 38.8087 16.3519 38.4275 15.7781C38.1388 15.3436 37.6225 15.0647 37.2181 14.7045C36.6838 14.2287 36.16 13.7411 35.6316 13.2587C35.0246 12.7044 34.5036 11.9268 33.7902 11.649C32.7497 11.2438 32.4834 9.87014 31.1979 9.81306C30.8815 9.79901 30.4016 9.20936 30.3275 8.82058C30.1426 7.85033 29.207 7.8385 28.6784 7.32874C27.8284 6.50889 26.8328 5.84306 25.9106 5.09725C24.3388 3.82604 22.768 2.55325 21.2164 1.25725C20.8929 0.986975 20.655 0.612975 20.3699 0.227302C22.758 0.167828 25.1537 0.167828 27.6294 0.230642C27.8315 0.536332 27.9108 0.948214 28.0837 0.992738C28.8203 1.18248 29.0798 1.95062 29.6077 2.23607C30.3041 2.61268 30.8353 2.94083 31.207 3.69175C31.4391 4.16065 32.0604 4.45959 32.548 4.76983C33.2781 5.23445 33.5361 6.19147 34.4891 6.46723C34.9495 6.60046 35.2885 7.15644 35.6838 7.51967C35.9707 7.78342 36.2505 8.05629 36.5508 8.30383C36.7764 8.48982 37.0609 8.61048 37.2644 8.81534C37.8194 9.3742 38.2902 10.0308 38.8953 10.5234C39.9209 11.3583 41.023 12.0982 42.095 12.8751C42.3574 13.0653 42.6276 13.2446 42.8942 13.4289C42.8942 15.2789 42.8942 17.1289 42.8942 19.0576Z" fill="#2C2C2C" fill-opacity="0.8"/>
<path opacity="0.8" d="M42.8942 13.3503C42.6276 13.2446 42.3574 13.0653 42.095 12.8751C41.023 12.0981 39.9209 11.3583 38.8953 10.5234C38.2902 10.0308 37.8194 9.37418 37.2644 8.81532C37.0609 8.61046 36.7764 8.48979 36.5508 8.3038C36.2505 8.05626 35.9707 7.78339 35.6838 7.51964C35.2886 7.15641 34.9495 6.60044 34.4891 6.4672C33.5361 6.19145 33.2781 5.23443 32.548 4.76981C32.0604 4.45957 31.4391 4.16062 31.207 3.69172C30.8353 2.94081 30.3041 2.61265 29.6077 2.23604C29.0799 1.95059 28.8203 1.18246 28.0837 0.992712C27.9108 0.948189 27.8315 0.536306 27.7076 0.230617C29.6567 0.167803 31.6074 0.167803 33.6434 0.229374C33.8108 0.356481 33.883 0.454877 33.9761 0.482829C38.3435 1.79405 41.2125 4.62513 42.5643 9.01025C42.6105 9.16012 42.7814 9.27111 42.8942 9.40023C42.8942 10.6907 42.8942 11.9811 42.8942 13.3503Z" fill="#2E2E2E"/>
<path d="M0.166901 14.1791C0.894802 14.5571 1.73149 14.9036 2.32506 15.4963C3.21141 16.3814 4.09146 16.553 5.16354 15.9149C6.53461 15.0987 7.96273 14.3796 9.46735 13.647C10.0605 14.1263 10.5525 14.5773 11.0445 15.0282C10.4219 15.868 9.70445 16.6559 9.21142 17.5666C8.90684 18.1292 9.07329 18.9405 8.79612 19.5297C8.41491 20.34 7.96643 21.3174 7.26266 21.7168C6.61448 22.0846 6.22616 22.5782 5.89085 23.092C5.40519 23.8361 4.9453 24.053 4.12551 23.6703C3.81756 23.5265 3.41576 23.5788 3.05581 23.5583C2.89777 23.5492 2.66244 23.657 2.5897 23.5837C1.8869 22.8758 1.08429 23.2474 0.237325 23.3325C0.166901 20.3079 0.166901 17.2828 0.166901 14.1791Z" fill="#1D1D1D" fill-opacity="0.8"/>
<path d="M23.6116 43.1407C23.4205 42.4118 23.9526 41.5938 23.2343 40.9453C23.2027 40.9168 23.1922 40.828 23.2112 40.7849C23.7 39.6808 23.7158 38.3379 24.8201 37.5443C24.9545 37.4478 25.1342 37.3944 25.2334 37.2722C26.0966 36.2087 27.0008 35.1719 27.7726 34.044C28.0746 33.6026 28.0702 32.9493 28.2766 32.3084C29.1879 32.1034 30.0279 31.9825 30.8705 31.9419C30.8297 32.8484 30.9077 33.7042 30.7177 34.4949C30.3346 36.0896 29.0313 37.2666 28.7287 38.9734C28.5752 39.8394 28.5958 40.3479 29.2153 40.9233C29.8444 41.5077 30.2813 42.2142 29.8757 43.1407C27.8138 43.1407 25.7518 43.1407 23.6116 43.1407Z" fill="#1C1C1C" fill-opacity="0.8"/>
<path d="M29.9539 43.1406C30.2813 42.2141 29.8444 41.5076 29.2153 40.9232C28.5958 40.3478 28.5752 39.8393 28.7287 38.9733C29.0313 37.2665 30.3346 36.0895 30.7177 34.4948C30.9077 33.7041 30.8297 32.8483 30.9177 31.9029C31.3969 31.6928 31.8314 31.6018 32.3302 31.5427C32.612 32.3811 32.9427 33.1765 33.0209 33.9963C33.1454 35.3027 33.0451 36.6301 33.1543 37.939C33.2057 38.555 33.3417 39.4013 33.756 39.7021C34.7572 40.4287 35.9445 40.8959 37.0204 41.512C36.0512 41.9653 35.1155 42.3679 34.1882 42.789C34.0133 42.8684 33.8715 43.0215 33.7145 43.1406C32.487 43.1406 31.2596 43.1406 29.9539 43.1406Z" fill="#202020" fill-opacity="0.8"/>
<path d="M30.3192 17.1431C30.5876 17.313 30.9778 17.419 31.1048 17.6634C31.9612 19.3112 32.6951 21.0272 33.6175 22.6347C33.9333 23.1851 33.7111 24.2663 34.8367 24.2331C34.9023 24.2311 35.0118 24.4323 35.0367 24.5524C35.1651 25.1705 35.5839 25.1934 36.0427 25.027C36.4657 24.8737 36.7158 24.928 37.0118 25.3229C37.5189 25.9992 38.1039 26.6254 38.7156 27.2098C39.0032 27.4845 39.4148 27.6493 39.7952 27.8C40.4489 28.0589 40.955 28.3808 41.3233 29.0687C41.6119 29.6077 42.279 29.9417 42.836 30.3749C42.8942 31.5056 42.8942 32.6282 42.8399 33.8249C42.7133 33.9041 42.641 33.9092 42.526 33.8758C42.3573 33.6247 42.2713 33.3689 42.0985 33.2067C40.9491 32.1277 39.787 31.0621 38.6118 30.0116C38.4602 29.8761 38.139 29.7271 38.0159 29.7971C37.006 30.3711 36.671 29.8195 36.468 28.9428C36.4345 28.7985 36.2861 28.6518 36.1529 28.5652C35.6464 28.236 35.007 28.0319 34.6351 27.5939C34.0556 26.9113 33.562 26.117 33.2003 25.2951C32.7748 24.3282 32.5624 23.2687 32.1889 22.2755C32.0347 21.8654 31.7017 21.5232 31.4275 21.0805C31.043 19.7216 30.6811 18.4323 30.3192 17.1431Z" fill="#262626" fill-opacity="0.8"/>
<path d="M32.2658 31.5109C31.8314 31.6019 31.3969 31.693 30.9152 31.8228C30.028 31.9825 29.1879 32.1034 28.2769 32.2404C26.2832 32.2477 24.3461 32.3867 22.4402 32.2012C17.6102 31.7313 13.9692 29.4863 12.136 24.6921C11.4846 22.067 11.4605 20.4896 12.0734 19.5891C12.8224 23.214 15.1123 25.214 18.695 26.0217C19.8472 26.0558 20.8681 26.0721 21.9601 26.0857C22.6987 25.9416 23.3662 25.8002 24.0965 25.6615C24.6491 25.4984 25.1579 25.3736 25.6251 25.1579C26.5565 24.7278 27.4632 24.722 28.4064 25.2259C29.9925 26.6326 31.5325 28.0122 33.1159 29.3396C33.6958 29.8257 33.8528 30.3201 33.4559 31.007C33.0215 31.1903 32.6437 31.3506 32.2658 31.5109Z" fill="#FDFDFD" fill-opacity="0.8"/>
<path d="M30.2728 17.111C30.6811 18.4325 31.043 19.7217 31.4158 21.1575C31.4351 23.1264 31.4053 23.2697 30.9348 23.7259C30.6325 21.6403 29.6472 19.9754 27.8395 18.7547C26.8277 18.2851 25.8483 17.8643 24.8168 17.4022C24.3657 17.302 23.9667 17.2431 23.5008 17.1647C22.7994 17.1471 22.1648 17.1488 21.5302 17.1505C20.0279 17.5364 18.5194 17.8995 17.0257 18.3162C16.0498 18.5885 15.1766 18.5265 14.3819 17.8358C13.313 16.9069 12.2271 15.9978 11.0965 15.0542C10.5525 14.5773 10.0605 14.1263 9.52579 13.6369C9.22333 12.5869 9.41107 12.2462 10.4191 11.9528C13.2356 11.1329 16.1125 10.8169 19.1163 10.9132C20.9377 11.2576 22.7298 11.4635 24.4148 12.0059C27.0257 12.8465 28.8935 14.6863 30.2728 17.111Z" fill="#FDFDFD" fill-opacity="0.8"/>
<path d="M21.5323 17.2123C22.1648 17.1486 22.7994 17.1469 23.4975 17.2331C23.5678 17.3763 23.5578 17.4415 23.5838 17.4853C24.6191 19.2317 23.9499 20.012 21.9468 20.8795C21.7228 20.9766 21.5304 21.1464 21.3215 21.2796C20.9173 21.5373 20.5007 21.7771 20.1114 22.0557C19.9034 22.2044 19.6078 22.4011 19.5816 22.6059C19.4506 23.6313 20.301 24.9614 21.2257 25.4075C21.4934 25.5366 21.6704 25.856 21.889 26.0882C20.8681 26.0719 19.8471 26.0556 18.7596 26.0159C18.5519 25.7731 18.4529 25.5037 18.2632 25.3423C16.9308 24.2083 17.1358 21.6623 19.0502 20.98C19.4663 20.8317 19.7979 20.4491 20.1755 20.1848C20.4618 19.9843 20.7359 19.7281 21.0564 19.6222C22.1098 19.2741 22.3672 18.5603 21.6735 17.6588C21.5945 17.556 21.5792 17.4037 21.5323 17.2123Z" fill="#1C1C1C" fill-opacity="0.8"/>
<path d="M32.3301 31.5427C32.6436 31.3505 33.0215 31.1902 33.4819 31.0654C34.6755 32.7266 34.4763 34.8395 35.5407 36.4834C35.5668 36.5237 35.5306 36.6028 35.5544 36.6467C35.7194 36.9512 35.8337 37.4157 36.0801 37.5049C36.3141 37.5896 36.6865 37.2732 37.0031 37.1458C37.2514 37.0459 37.694 36.839 37.7316 36.8953C38.2393 37.654 38.8872 38.2402 39.6486 38.7284C39.7507 38.7938 39.7035 39.0949 39.7254 39.2868C38.8701 39.9966 38.0148 40.7064 37.1081 41.442C35.9445 40.8959 34.7571 40.4287 33.756 39.7021C33.3417 39.4013 33.2056 38.555 33.1543 37.939C33.0451 36.6301 33.1454 35.3027 33.0208 33.9964C32.9427 33.1765 32.6119 32.3811 32.3301 31.5427Z" fill="#222222" fill-opacity="0.8"/>
<path d="M39.7747 39.259C39.7035 39.0949 39.7507 38.7938 39.6486 38.7284C38.8872 38.2402 38.2393 37.654 37.7317 36.8953C37.694 36.839 37.2514 37.046 37.0031 37.1458C36.6866 37.2732 36.3141 37.5896 36.0802 37.5049C35.8337 37.4157 35.7194 36.9512 35.5545 36.6467C35.5306 36.6028 35.5668 36.5237 35.5408 36.4834C34.4764 34.8395 34.6755 32.7266 33.5385 31.0424C33.8528 30.32 33.6958 29.8256 33.1159 29.3395C31.5325 28.0121 29.9925 26.6325 28.4638 25.211C28.5521 24.9849 28.7118 24.7384 28.6563 24.6709C28.0717 23.9607 28.3158 23.169 28.3634 22.3856C28.3864 22.0067 28.317 21.6188 28.261 21.2392C28.1411 20.4258 28.0028 19.6152 27.872 18.8035C29.6472 19.9754 30.6325 21.6402 30.9348 23.7258C31.4053 23.2696 31.4351 23.1263 31.4384 21.2272C31.7017 21.5234 32.0347 21.8655 32.1889 22.2756C32.5624 23.2688 32.7748 24.3283 33.2003 25.2952C33.562 26.1171 34.0556 26.9114 34.6351 27.594C35.007 28.032 35.6464 28.2362 36.1529 28.5653C36.2861 28.6519 36.4345 28.7986 36.468 28.943C36.671 29.8197 37.006 30.3712 38.0159 29.7972C38.139 29.7273 38.4602 29.8762 38.6118 30.0117C39.787 31.0622 40.9491 32.1278 42.0985 33.2068C42.2713 33.369 42.3573 33.6248 42.526 33.8759C42.3346 35.5889 41.4932 36.9864 40.5601 38.3381C40.3416 38.6546 40.0708 38.9345 39.7747 39.259Z" fill="#242424" fill-opacity="0.8"/>
<path d="M27.8395 18.7547C28.0028 19.6152 28.1411 20.4258 28.261 21.2392C28.317 21.6188 28.3864 22.0067 28.3634 22.3856C28.3158 23.169 28.0717 23.9606 28.6563 24.6709C28.7118 24.7383 28.552 24.9849 28.4348 25.1632C27.4632 24.7219 26.5565 24.7277 25.6251 25.1578C25.1579 25.3735 24.6491 25.4983 24.0869 25.6016C23.9818 24.6898 23.1824 24.7809 22.7183 24.455C22.4628 24.2755 22.0456 23.976 22.0793 23.8066C22.149 23.4556 22.4292 23.1124 22.6996 22.8445C23.0892 22.4586 23.5518 22.1479 23.9747 21.7949C24.3552 21.4774 24.6934 21.0976 25.1057 20.8323C25.6906 20.4559 25.8696 19.9482 25.5877 19.2935C25.3262 18.6863 25.1068 18.0608 24.8689 17.4434C25.8483 17.8642 26.8277 18.285 27.8395 18.7547Z" fill="#1F1F1F" fill-opacity="0.8"/>
<path d="M24.8168 17.402C25.1068 18.0607 25.3262 18.6862 25.5877 19.2934C25.8696 19.9481 25.6906 20.4558 25.1057 20.8322C24.6934 21.0974 24.3551 21.4772 23.9747 21.7948C23.5517 22.1478 23.0892 22.4584 22.6996 22.8444C22.4292 23.1123 22.149 23.4555 22.0792 23.8065C22.0456 23.9759 22.4628 24.2754 22.7183 24.4549C23.1824 24.7808 23.9818 24.6897 24.0242 25.5987C23.3662 25.7999 22.6987 25.9414 21.9601 26.0855C21.6704 25.856 21.4934 25.5366 21.2257 25.4074C20.301 24.9614 19.4506 23.6313 19.5816 22.6059C19.6077 22.4011 19.9034 22.2044 20.1114 22.0556C20.5007 21.7771 20.9173 21.5373 21.3214 21.2796C21.5304 21.1464 21.7228 20.9765 21.9468 20.8795C23.9499 20.0119 24.619 19.2317 23.5837 17.4853C23.5578 17.4415 23.5677 17.3763 23.5643 17.2525C23.9667 17.2429 24.3657 17.3018 24.8168 17.402Z" fill="#1D1D1D" fill-opacity="0.8"/>
</g>
<path d="M58.5818 35.6365H54V8.90918H67.5545C73.0145 8.90918 76.3364 12.5365 76.3364 17.3092C76.3364 22.6928 72.5945 25.9765 67.5545 25.9765H58.5818V35.6365ZM58.5818 13.0328V21.8528H67.3255C70.1891 21.8528 71.6782 19.7146 71.6782 17.3092C71.6782 14.7892 69.96 13.0328 67.3255 13.0328H58.5818Z" fill="black" fill-opacity="0.75"/>
<path d="M86.2773 36.209C81.4664 36.209 78.6791 33.1926 78.6791 28.8017V15.3999H83.1845V28.6108C83.1845 30.9017 84.7882 32.2381 87.1936 32.2381C90.2864 32.2381 92.1191 30.2144 92.1573 27.6181V15.3999H96.6627V35.6363H93.0354L92.6918 32.6963C91.5082 34.8726 89.1027 36.209 86.2773 36.209Z" fill="black" fill-opacity="0.75"/>
<path d="M104.873 35.6364H100.368V7H104.873V35.6364Z" fill="black" fill-opacity="0.75"/>
<path d="M116.64 36.2091C111.104 36.2091 107.82 33.6127 107.553 29.1836H111.906C112.058 31.36 113.929 32.5054 116.411 32.5054C118.702 32.5054 119.924 31.6272 119.924 30.0618C119.924 28.4963 118.626 28.1909 116.869 27.6182L114.197 26.74C110.837 25.6327 107.935 24.4872 107.935 20.7454C107.935 17.1563 110.684 14.7891 115.533 14.7891C120.229 14.7891 123.437 17.2709 123.971 21.8527H119.695C119.466 19.5618 117.824 18.4927 115.495 18.4927C113.509 18.4927 112.364 19.3327 112.364 20.7072C112.364 22.2727 114.12 22.6927 115.571 23.1891L118.015 23.9909C122.024 25.3272 124.429 26.5491 124.429 30.1763C124.429 33.9182 121.604 36.2091 116.64 36.2091Z" fill="black" fill-opacity="0.75"/>
<path d="M136.037 36.2091C129.469 36.2091 125.651 31.5891 125.651 25.3272C125.651 18.7218 130.118 14.7891 136.037 14.7891C142.566 14.7891 146.384 19.3709 146.384 25.3272C146.384 32.1618 142.069 36.2091 136.037 36.2091ZM136.037 32.3527C139.664 32.3527 141.802 29.3745 141.802 25.3272C141.802 21.3182 139.549 18.6454 136.037 18.6454C132.524 18.6454 130.233 21.3182 130.233 25.3272C130.233 29.7563 132.715 32.3527 136.037 32.3527Z" fill="black" fill-opacity="0.75"/>
<path d="M153.464 35.6364H148.958V15.4H152.585L153.12 19.3709C154.418 16.6218 156.785 15.1709 160.145 15.1709H160.909V19.5618H160.145C155.945 19.5618 153.464 21.8145 153.464 25.6327V35.6364Z" fill="black" fill-opacity="0.75"/>
<defs>
<clipPath id="clip0_338_171">
<rect width="42.7273" height="42.9727" fill="white"/>
</clipPath>
</defs>
</svg>
