<svg width="150" height="50" viewBox="0 0 150 50" fill="none" xmlns="http://www.w3.org/2000/svg">
<g clip-path="url(#clip0_332_73)">
<path d="M18.7634 17.8409V23.1818H30.8792C30.5575 26.1364 29.5926 28.4091 28.0915 29.8864C26.376 31.7045 23.5883 33.75 18.7634 33.75C11.3653 33.75 5.57541 27.3864 5.57541 19.5455C5.57541 11.7045 11.258 5.34091 18.7634 5.34091C22.7305 5.34091 25.7327 7.04545 27.8771 9.20455L31.4153 5.45455C28.4132 2.38636 24.3388 0 18.7634 0C8.57756 0 0 8.75 0 19.5455C0 30.3409 8.57756 39.0909 18.7634 39.0909C24.2316 39.0909 28.4132 37.1591 31.6297 33.6364C34.9535 30.1136 36.0257 25.1136 36.0257 21.1364C36.0257 19.8864 35.9185 18.75 35.8113 17.8409H18.7634Z" fill="black" fill-opacity="0.79"/>
<path d="M51.0365 13.4092C44.4961 13.4092 39.0279 18.7501 39.0279 26.0228C39.0279 33.2955 44.3889 38.6365 51.0365 38.6365C57.6841 38.6365 63.045 33.4092 63.045 26.1365C63.045 18.7501 57.6841 13.4092 51.0365 13.4092ZM51.0365 33.7501C47.391 33.7501 44.2816 30.5683 44.2816 26.1365C44.2816 21.591 47.391 18.5228 51.0365 18.5228C54.6819 18.5228 57.7913 21.591 57.7913 26.1365C57.7913 30.5683 54.6819 33.7501 51.0365 33.7501Z" fill="#868686" fill-opacity="0.79"/>
<path d="M109.686 16.2501H109.471C108.292 14.7728 106.04 13.4092 103.145 13.4092C97.1408 13.4092 91.9943 18.8637 91.9943 26.0228C91.9943 33.0683 97.1408 38.6365 103.145 38.6365C106.04 38.6365 108.292 37.2728 109.471 35.7955H109.686V37.6137C109.686 42.3865 107.219 45.0001 103.36 45.0001C100.143 45.0001 98.213 42.6137 97.3553 40.4546L92.852 42.5001C94.1387 45.7955 97.6769 50.0001 103.467 50.0001C109.578 50.0001 114.832 46.1365 114.832 36.8183V14.091H109.9V16.2501H109.686ZM103.681 33.7501C100.036 33.7501 97.3553 30.4546 97.3553 26.1365C97.3553 21.7046 100.143 18.5228 103.681 18.5228C107.219 18.5228 110.007 21.8183 110.007 26.2501C110.114 30.5683 107.327 33.7501 103.681 33.7501Z" fill="black" fill-opacity="0.79"/>
<path d="M77.7341 13.4092C71.1937 13.4092 65.7255 18.7501 65.7255 26.0228C65.7255 33.2955 71.0865 38.6365 77.7341 38.6365C84.3817 38.6365 89.7427 33.4092 89.7427 26.1365C89.7427 18.7501 84.3817 13.4092 77.7341 13.4092ZM77.7341 33.7501C74.0886 33.7501 70.9793 30.5683 70.9793 26.1365C70.9793 21.591 74.0886 18.5228 77.7341 18.5228C81.3796 18.5228 84.4889 21.591 84.4889 26.1365C84.4889 30.5683 81.3796 33.7501 77.7341 33.7501Z" fill="#3D3D3D" fill-opacity="0.79"/>
<path d="M118.799 0.568115H123.946V38.7499H118.799V0.568115Z" fill="#9D9D9D" fill-opacity="0.79"/>
<path d="M139.814 33.7501C137.134 33.7501 135.311 32.5001 134.024 29.8865L150 22.9546L149.464 21.4774C148.499 18.6365 145.39 13.4092 139.278 13.4092C133.167 13.4092 128.02 18.5228 128.02 26.0228C128.02 33.0683 133.059 38.6365 139.814 38.6365C145.282 38.6365 148.392 35.1137 149.786 33.0683L145.711 30.2274C144.317 32.3865 142.495 33.7501 139.814 33.7501ZM139.493 18.1819C141.637 18.1819 143.46 19.3183 143.996 20.9092L133.274 25.6819C133.167 20.4546 136.812 18.1819 139.493 18.1819Z" fill="#868686" fill-opacity="0.79"/>
</g>
<defs>
<clipPath id="clip0_332_73">
<rect width="150" height="50" fill="white"/>
</clipPath>
</defs>
</svg>
