<svg width="143" height="32" viewBox="0 0 143 32" fill="none" xmlns="http://www.w3.org/2000/svg">
<g clip-path="url(#clip0_333_87)">
<path fill-rule="evenodd" clip-rule="evenodd" d="M97.2861 0H102.909V31.0635H97.2861V0ZM142.609 13.0997V8.28361H136.84V2.02274H131.217V24.899C131.217 27.0181 131.751 28.6074 132.817 29.6669C133.883 30.7264 135.483 31.2562 137.664 31.2562H142.609V26.4401H138.973C138.198 26.4401 137.616 26.2475 137.277 25.9104C136.986 25.6214 136.792 24.8027 136.792 23.9358V13.0997H142.609ZM59.2345 24.9953L65.0028 8.23545H70.8681L62.5307 31.0154H55.8898L47.5524 8.28361H53.4177L59.2345 24.9953ZM122.104 19.6495C122.104 21.0943 121.862 22.3465 121.474 23.3579C121.038 24.3692 120.408 25.188 119.632 25.7177C118.857 26.2475 117.887 26.4883 116.772 26.4883C115.173 26.4883 113.961 25.9585 113.185 24.9472C112.41 23.8876 111.974 22.3465 111.974 20.2756V8.23545H106.351V20.8535C106.351 22.8281 106.593 24.5137 107.078 25.814C107.562 27.1625 108.241 28.2221 109.065 29.0408C109.889 29.8595 110.859 30.4375 111.974 30.7746C113.04 31.1117 114.203 31.3043 115.415 31.3043C117.16 31.3043 118.614 30.9672 119.729 30.3893C120.747 29.8114 121.571 29.1371 122.25 28.4147L122.735 31.0635H127.63V8.28361H122.007V19.6495H122.104ZM88.7063 9.43947C86.9612 8.47625 84.8284 7.99465 82.5017 7.99465C80.175 7.99465 78.0906 8.47625 76.2971 9.43947C74.5036 10.4027 73.0979 11.7993 72.1284 13.5331C71.1589 15.2669 70.6742 17.3378 70.6742 19.6495C70.6742 21.9612 71.1589 23.9839 72.1284 25.7177C73.0979 27.4515 74.5036 28.8482 76.2971 29.8114C78.0906 30.7746 80.175 31.2562 82.5017 31.2562C84.8769 31.2562 86.9612 30.7746 88.7063 29.8114C90.4513 28.8482 91.8571 27.4515 92.8265 25.7177C93.796 23.9839 94.2807 21.913 94.2807 19.6495C94.2807 17.3378 93.796 15.2669 92.8265 13.5331C91.9055 11.7993 90.4998 10.4508 88.7063 9.43947ZM85.7494 25.7177C84.8284 26.2957 83.762 26.5846 82.5017 26.5846C81.2414 26.5846 80.175 26.2957 79.254 25.7177C78.333 25.1398 77.6059 24.3211 77.1211 23.2615C76.6364 22.202 76.3456 20.998 76.3456 19.6495C76.3456 18.2528 76.5879 17.0488 77.1211 16.0375C77.6059 15.0261 78.333 14.1592 79.254 13.5813C80.175 13.0033 81.2414 12.6662 82.5017 12.6662C83.762 12.6662 84.8769 12.9552 85.7494 13.5813C86.6704 14.1592 87.349 15.0261 87.8822 16.0375C88.367 17.0488 88.6578 18.301 88.6578 19.6495C88.6578 20.998 88.4154 22.202 87.8822 23.2615C87.3975 24.3211 86.6704 25.1398 85.7494 25.7177ZM5.81681 7.65752H0V31.0154H5.81681V7.65752ZM24.0913 9.00602C24.0913 4.04549 20.0195 0 15.0267 0H0V5.0087H14.2996C16.5779 5.0087 18.4199 6.79064 18.4684 8.95786C18.4684 10.0656 18.0806 11.0769 17.305 11.8475C16.5294 12.5699 15.5115 13.0033 14.4451 13.0033H8.87063C8.67673 13.0033 8.53131 13.1478 8.53131 13.3405V17.8194C8.53131 17.9157 8.53132 17.9639 8.57979 18.012L18.0321 31.0154H24.9638L15.463 17.9639C20.2134 17.7712 24.0913 13.7739 24.0913 9.00602ZM41.9779 9.34314C40.2814 8.47625 38.294 7.99465 36.0642 7.99465C33.8344 7.99465 31.7985 8.47625 30.102 9.43947C28.3569 10.4027 27.0481 11.7993 26.0787 13.5331C25.1092 15.2669 24.673 17.3378 24.673 19.6977C24.673 22.0094 25.1577 24.0321 26.1272 25.7659C27.0966 27.4997 28.5023 28.8963 30.2474 29.8114C32.0409 30.7746 34.1737 31.2562 36.5974 31.2562C38.5363 31.2562 40.2329 30.9191 41.7356 30.1967C43.2383 29.4742 44.4501 28.511 45.3226 27.307C46.1951 26.1512 46.7768 24.899 47.0677 23.5023L47.1161 23.3579H41.4447L41.3963 23.4542C41.1054 24.5137 40.4753 25.3324 39.6512 25.9104C38.7302 26.5365 37.5669 26.8736 36.2581 26.8736C35.1432 26.8736 34.1253 26.6328 33.2527 26.1512C32.3802 25.6696 31.7016 24.9953 31.2169 24.1766C30.7321 23.3097 30.4898 22.2983 30.3928 21.1425V20.9498H47.2131V20.8535C47.2615 20.5164 47.31 20.1793 47.31 19.8903C47.31 19.5532 47.31 19.2642 47.31 18.9271C47.2615 16.7117 46.7768 14.7853 45.8558 13.1478C44.9833 11.4622 43.626 10.21 41.9779 9.34314ZM39.9421 13.6294C40.9115 14.4482 41.4932 15.5559 41.7356 17.0007H30.6352C30.7806 16.0856 31.0714 15.2669 31.5562 14.5926C32.0894 13.8702 32.7195 13.3405 33.5436 12.9552C34.3192 12.5699 35.1917 12.3773 36.1127 12.3773C37.6638 12.3773 38.9241 12.8107 39.9421 13.6294Z" fill="black" fill-opacity="0.75"/>
</g>
<defs>
<clipPath id="clip0_333_87">
<rect width="142.609" height="31.3043" fill="white"/>
</clipPath>
</defs>
</svg>
