<svg width="95" height="85" viewBox="0 0 95 85" fill="none" xmlns="http://www.w3.org/2000/svg">
<rect width="75" height="64" transform="translate(20 11)" fill="white"/>
<path d="M21.96 40.52C21.96 31.56 25.52 26.56 31.92 26.56C38.32 26.56 41.92 31.56 41.92 40.52C41.92 49.48 38.4 54.4 31.92 54.4C25.44 54.4 21.96 49.48 21.96 40.52ZM26.12 40.52C26.12 47.2 28.12 50.76 31.92 50.76C35.72 50.76 37.76 47.24 37.76 40.52C37.76 33.76 35.72 30.2 31.92 30.2C28.2 30.2 26.12 33.76 26.12 40.52ZM55.2272 54.36C49.6272 54.36 45.7072 51.08 45.6672 46.32H49.6272C49.7872 49.24 51.9472 51.12 55.2272 51.12C58.6272 51.12 60.7072 49.28 60.7072 46.36C60.7072 43.52 58.3472 41.72 54.6272 41.72H51.8272V38.48H54.4272C57.4672 38.48 59.4672 36.72 59.4672 34.08C59.4672 31.52 57.6672 29.8 54.9472 29.8C52.1872 29.8 50.3472 31.56 50.2272 34.32H46.3072C46.4272 29.88 50.1872 26.56 55.1072 26.56C60.3072 26.56 63.6672 29.56 63.6672 33.8C63.6672 36.44 62.1072 38.56 59.3072 39.88C62.8672 40.84 64.9072 43.16 64.9072 46.28C64.9072 51.08 60.9872 54.36 55.2272 54.36Z" fill="#8482BC"/>
<g opacity="0.99" style="mix-blend-mode:multiply">
<path d="M43 5C64.0421 5 81 21.8443 81 42.5C81 63.1557 64.0421 80 43 80C21.9579 80 5 63.1557 5 42.5C5 21.8443 21.9579 5 43 5Z" stroke="#8381BB" stroke-width="10"/>
</g>
</svg>
