<svg width="98" height="85" viewBox="0 0 98 85" fill="none" xmlns="http://www.w3.org/2000/svg">
<rect width="75" height="63" transform="translate(23 11)" fill="white"/>
<path d="M24.96 40.52C24.96 31.56 28.52 26.56 34.92 26.56C41.32 26.56 44.92 31.56 44.92 40.52C44.92 49.48 41.4 54.4 34.92 54.4C28.44 54.4 24.96 49.48 24.96 40.52ZM29.12 40.52C29.12 47.2 31.12 50.76 34.92 50.76C38.72 50.76 40.76 47.24 40.76 40.52C40.76 33.76 38.72 30.2 34.92 30.2C31.2 30.2 29.12 33.76 29.12 40.52ZM56.7119 54H52.6319V30.48H47.3919V26.96H56.7119V54Z" fill="#8482BC"/>
<g opacity="0.99" style="mix-blend-mode:multiply">
<path d="M43 5C64.0421 5 81 21.8443 81 42.5C81 63.1557 64.0421 80 43 80C21.9579 80 5 63.1557 5 42.5C5 21.8443 21.9579 5 43 5Z" stroke="#8381BB" stroke-width="10"/>
</g>
</svg>
