<svg width="95" height="85" viewBox="0 0 95 85" fill="none" xmlns="http://www.w3.org/2000/svg">
<rect width="75" height="64" transform="translate(20 11)" fill="white"/>
<path d="M21.96 40.52C21.96 31.56 25.52 26.56 31.92 26.56C38.32 26.56 41.92 31.56 41.92 40.52C41.92 49.48 38.4 54.4 31.92 54.4C25.44 54.4 21.96 49.48 21.96 40.52ZM26.12 40.52C26.12 47.2 28.12 50.76 31.92 50.76C35.72 50.76 37.76 47.24 37.76 40.52C37.76 33.76 35.72 30.2 31.92 30.2C28.2 30.2 26.12 33.76 26.12 40.52ZM63.4272 50.4V54H45.9472V51.68L54.3872 42.56C57.5872 39.08 58.8272 37.2 58.8272 34.76C58.8272 32.08 56.9472 30.2 54.1872 30.2C51.1872 30.2 49.1872 32.16 49.1872 35.16H45.2272C45.2272 30.16 48.9872 26.56 54.3472 26.56C59.3872 26.56 63.0672 29.84 63.0672 34.28C63.0672 37.36 61.9072 39.52 57.4672 44.24L52.0272 50.4H63.4272Z" fill="#8482BC"/>
<g opacity="0.99" style="mix-blend-mode:multiply">
<path d="M43 5C64.0421 5 81 21.8443 81 42.5C81 63.1557 64.0421 80 43 80C21.9579 80 5 63.1557 5 42.5C5 21.8443 21.9579 5 43 5Z" stroke="#8482BC" stroke-width="10"/>
</g>
</svg>
